#!OML:ASF F:\VICON\USERDATA\INSTALL\Justin_Nancy\Justin_Nancy.ASF
:FULLY-SPECIFIED
:DEGREES
153
root -1.07757 16.385 29.8826 15.7854 -3.43192 -2.5892
lowerback 17.1043 -0.0904268 0.964932
upperback 1.19172 0.381174 3.64552
thorax -8.34683 0.218184 3.29578
lowerneck -27.2921 -2.15956 -9.03541
upperneck -0.616141 -0.504624 6.72063
head 3.99064 0.190278 3.54371
rclavicle 7.95139e-016 1.59028e-014
rhumerus -42.7115 4.84161 -91.278
rradius 117.563
rwrist -6.33451
rhand -16.8375 30.9298
rfingers 7.12502
rthumb 9.39211 1.15901
lclavicle 7.95139e-016 1.59028e-014
lhumerus -55.827 -8.87499 93.0346
lradius 87.4743
lwrist 17.1922
lhand -27.9412 8.27388
lfingers 7.12502
lthumb -1.32914 38.2495
rfemur -25.3004 3.24673 28.1118
rtibia 46.2652
rfoot -23.7087 -18.7631
rtoes -17.4444
lfemur -38.0193 3.65265 -12.3804
ltibia 96.8824
lfoot 10.1949 -13.7269
ltoes -6.89388
154
root -1.08256 16.439 30.4753 14.8545 -1.3643 -2.33996
lowerback 17.4351 -0.431888 1.94455
upperback 1.48944 0.106964 3.47052
thorax -8.18974 0.0465257 2.61189
lowerneck -27.4984 -2.64127 -9.18148
upperneck -0.253383 -1.10307 7.05515
head 4.1861 -0.0782045 3.61465
rclavicle -1.94809e-014 -1.66979e-014
rhumerus -41.2034 5.28432 -92.2691
rradius 120.203
rwrist -8.47107
rhand -17.6936 31.6769
rfingers 7.12502
rthumb 8.56601 1.87069
lclavicle -1.94809e-014 -1.66979e-014
lhumerus -57.279 -9.92653 93.2686
lradius 89.4586
lwrist 18.7109
lhand -26.7182 7.84522
lfingers 7.12502
lthumb -0.147901 37.8249
rfemur -20.3766 1.47752 28.4144
rtibia 43.511
rfoot -23.0709 -19.5108
rtoes -21.6578
lfemur -40.086 2.41765 -12.2355
ltibia 96.6808
lfoot 8.22045 -13.0077
ltoes -9.5785
155
root -1.09643 16.4928 31.0649 14.844 -1.5921 -2.72903
lowerback 17.1831 0.18958 2.2908
upperback 1.31694 0.978153 3.35787
thorax -8.25634 0.450361 2.08281
lowerneck -27.3808 -3.06059 -9.43767
upperneck 0.520241 -1.63167 7.39988
head 4.46874 -0.319426 3.71184
rclavicle -2.06736e-014 -3.26007e-014
rhumerus -40.4046 5.8763 -93.061
rradius 122.744
rwrist -10.3933
rhand -18.3478 32.4437
rfingers 7.12502
rthumb 7.93468 2.61261
lclavicle -2.06736e-014 -3.26007e-014
lhumerus -59.2461 -11.0364 93.691
lradius 91.5467
lwrist 20.2895
lhand -25.0774 9.51087
lfingers 7.12502
lthumb 1.43681 39.4858
rfemur -16.4959 1.84085 28.6719
rtibia 40.5941
rfoot -21.644 -19.0936
rtoes -25.609
lfemur -42.351 3.66798 -12.1276
ltibia 96.0919
lfoot 6.04777 -12.2893
ltoes -12.1409
156
root -1.10661 16.5593 31.6618 14.968 -1.71488 -3.25529
lowerback 16.8852 0.83481 2.79678
upperback 1.0023 1.91949 3.28783
thorax -8.43327 0.880704 1.49804
lowerneck -26.9923 -3.46348 -9.48964
upperneck 1.07734 -2.19646 7.39839
head 4.64224 -0.60585 3.65469
rclavicle 3.18055e-015 3.33958e-014
rhumerus -39.965 6.62323 -93.6198
rradius 125.294
rwrist -11.8942
rhand -19.0454 32.7163
rfingers 7.12502
rthumb 7.26135 2.86088
lclavicle 3.18055e-015 3.33958e-014
lhumerus -61.374 -12.1895 94.166
lradius 93.8634
lwrist 21.7182
lhand -23.5778 11.4589
lfingers 7.12502
lthumb 2.88511 41.4192
rfemur -12.8255 2.42697 29.0654
rtibia 37.6604
rfoot -19.8202 -18.5123
rtoes -26.7203
lfemur -44.8595 4.78909 -12.0025
ltibia 94.9778
lfoot 4.59299 -11.5947
ltoes -12.3963
157
root -1.09976 16.6456 32.2492 15.384 -1.35075 -3.46128
lowerback 16.3502 1.24911 3.40524
upperback 0.682123 2.55727 3.15708
thorax -8.45562 1.15981 0.871116
lowerneck -26.648 -3.86124 -9.58861
upperneck 1.25036 -2.71842 7.34474
head 4.69363 -0.872276 3.59139
rclavicle -4.37326e-015 -2.54444e-014
rhumerus -39.5925 7.62993 -94.0509
rradius 128.025
rwrist -12.7803
rhand -19.9293 32.8556
rfingers 7.12502
rthumb 6.40807 2.97252
lclavicle -4.37326e-015 -2.54444e-014
lhumerus -63.024 -13.1037 94.5811
lradius 95.9022
lwrist 22.7885
lhand -21.9053 13.1419
lfingers 7.12502
lthumb 4.50021 43.0741
rfemur -9.85455 2.54384 29.1142
rtibia 34.9406
rfoot -19.4879 -16.3574
rtoes -20.537
lfemur -47.7741 5.09612 -12.4004
ltibia 93.3375
lfoot 3.81896 -10.7003
ltoes -12.485
158
root -1.05956 16.7431 32.868 15.6835 -1.27429 -3.50224
lowerback 15.6657 1.65447 4.1813
upperback 0.463404 3.17738 2.84532
thorax -8.2449 1.42364 -0.0244877
lowerneck -26.4638 -4.24337 -9.61762
upperneck 1.58405 -3.23741 7.32277
head 4.81801 -1.13237 3.52755
rclavicle -1.98785e-014 -3.26007e-014
rhumerus -39.2888 8.92074 -94.3452
rradius 130.524
rwrist -13.2016
rhand -20.4799 33.7975
rfingers 7.12502
rthumb 5.87653 3.89897
lclavicle -1.98785e-014 -3.26007e-014
lhumerus -64.6129 -13.7361 94.9096
lradius 97.6452
lwrist 23.6041
lhand -21.3623 12.9523
lfingers 7.12502
lthumb 5.02452 42.8728
rfemur -6.8126 2.32895 28.6572
rtibia 32.3414
rfoot -16.357 -14.0082
rtoes -24.1265
lfemur -49.8315 5.19102 -13.3327
ltibia 91.1686
lfoot 2.71748 -9.42577
ltoes -14.9087
159
root -1.02986 16.8276 33.4818 15.7999 -1.18006 -3.63454
lowerback 15.1107 2.02132 4.87161
upperback 0.334614 3.7294 2.56077
thorax -7.99455 1.66222 -0.815334
lowerneck -26.3061 -4.56739 -9.69481
upperneck 1.92137 -3.68269 7.49187
head 4.94811 -1.34167 3.54216
rclavicle -6.95746e-014 -2.14687e-014
rhumerus -38.8092 10.3702 -94.4666
rradius 132.429
rwrist -13.6348
rhand -20.5717 35.9958
rfingers 7.12502
rthumb 5.78788 6.09485
lclavicle -6.95746e-014 -2.14687e-014
lhumerus -66.0678 -14.1494 95.0197
lradius 99.1567
lwrist 24.4961
lhand -22.3224 10.0568
lfingers 7.12502
lthumb 4.09747 39.9971
rfemur -3.73237 1.9266 28.3621
rtibia 29.8007
rfoot -12.7686 -11.5696
rtoes -27.7841
lfemur -51.6085 5.23675 -14.0165
ltibia 88.7162
lfoot 1.81231 -7.91161
ltoes -16.6497
